static_grf.mot
version=1
nRows=25
nColumns 19
inDegrees=yes
endheader
time	1_ground_force_vx	1_ground_force_vy	1_ground_force_vz	1_ground_force_px	1_ground_force_py	1_ground_force_pz	1_ground_torque_x	1_ground_torque_y	1_ground_torque_z	2_ground_force_vx	2_ground_force_vy	2_ground_force_vz	2_ground_force_px	2_ground_force_py	2_ground_force_pz	2_ground_torque_x	2_ground_torque_y	2_ground_torque_z
            0.475000	           -2.988367	          401.836244	          -46.052760	           -0.252603	            0.006179	           -0.395985	           -0.036426	            4.898088	           -0.561349	            0.971790	          489.304655	           49.799685	           -0.263365	            0.005500	           -0.688519	           -0.009138	           -4.601143	           -0.468288
            0.475500	           -2.392588	          402.197087	          -46.098553	           -0.252274	            0.006181	           -0.396267	           -0.029436	            4.948166	           -0.567143	            0.879481	          488.935533	           49.939195	           -0.263272	            0.005500	           -0.688331	           -0.008253	           -4.587935	           -0.468605
            0.476000	           -2.804947	          402.196614	          -46.005817	           -0.252427	            0.006180	           -0.396082	           -0.034209	            4.905144	           -0.561082	            0.922261	          490.041277	           49.755405	           -0.263018	            0.005502	           -0.688582	           -0.008612	           -4.576061	           -0.464622
            0.476500	           -2.851296	          403.098554	          -46.139403	           -0.252655	            0.006180	           -0.396108	           -0.035008	            4.949150	           -0.566489	            0.782294	          489.857298	           49.567095	           -0.263263	            0.005500	           -0.688257	           -0.007316	           -4.581318	           -0.463569
            0.477000	           -2.712904	          402.736673	          -45.820302	           -0.252429	            0.006180	           -0.396011	           -0.033419	            4.961119	           -0.564438	            0.830576	          489.488288	           49.800402	           -0.263249	            0.005500	           -0.688263	           -0.007716	           -4.547481	           -0.462659
            0.477500	           -2.713684	          402.017183	          -46.190241	           -0.252456	            0.006180	           -0.396162	           -0.033354	            4.941255	           -0.567731	            1.016626	          489.857475	           49.754708	           -0.263263	            0.005500	           -0.688376	           -0.009472	           -4.564154	           -0.463580
            0.478000	           -2.530443	          402.738281	          -46.187605	           -0.252437	            0.006179	           -0.395811	           -0.031325	            4.985634	           -0.571772	            0.925543	          489.120847	           49.658263	           -0.263303	            0.005499	           -0.688118	           -0.008700	           -4.597508	           -0.466765
            0.478500	           -2.988157	          402.556716	          -45.912104	           -0.252428	            0.006181	           -0.396278	           -0.036545	            4.923253	           -0.561503	            0.830597	          489.488121	           49.847330	           -0.263244	            0.005500	           -0.688302	           -0.007750	           -4.567497	           -0.465134
            0.479000	           -2.804590	          402.736655	          -45.820075	           -0.252478	            0.006180	           -0.396014	           -0.034732	            4.987483	           -0.567435	            0.782438	          489.856127	           49.895592	           -0.263375	            0.005500	           -0.688525	           -0.007296	           -4.567848	           -0.465270
            0.479500	           -2.759577	          402.918275	          -46.140403	           -0.252614	            0.006180	           -0.396029	           -0.033720	            4.923354	           -0.563801	            0.881372	          488.383948	           49.702583	           -0.263197	            0.005499	           -0.688166	           -0.008261	           -4.577494	           -0.465849
            0.480000	           -2.804932	          402.737245	          -45.957639	           -0.252489	            0.006179	           -0.395934	           -0.034373	            4.935366	           -0.563190	            1.018722	          489.304155	           49.987377	           -0.263290	            0.005500	           -0.688442	           -0.009520	           -4.572577	           -0.467135
            0.480500	           -2.713213	          402.556966	          -45.958639	           -0.252492	            0.006180	           -0.396134	           -0.033162	            4.920172	           -0.561720	            0.828644	          490.040269	           49.943157	           -0.263208	            0.005501	           -0.688504	           -0.007725	           -4.568157	           -0.465570
            0.481000	           -2.896878	          402.917855	          -46.048350	           -0.252405	            0.006180	           -0.396070	           -0.035239	            4.901301	           -0.560156	            1.110428	          489.856976	           49.989309	           -0.263187	            0.005501	           -0.688454	           -0.010278	           -4.533928	           -0.462682
            0.481500	           -2.713246	          402.737262	          -45.957866	           -0.252473	            0.006180	           -0.396165	           -0.033390	            4.956204	           -0.565571	            1.020011	          488.936208	           49.892207	           -0.263349	            0.005499	           -0.688141	           -0.009580	           -4.592240	           -0.468603
            0.482000	           -2.805468	          402.557931	          -46.187695	           -0.252305	            0.006180	           -0.396209	           -0.034359	            4.930200	           -0.565669	            0.971873	          489.303986	           49.987397	           -0.263177	            0.005500	           -0.688365	           -0.009058	           -4.560531	           -0.465905
            0.482500	           -2.942656	          402.557315	          -46.049782	           -0.252671	            0.006180	           -0.396103	           -0.035535	            4.861216	           -0.556090	            0.973161	          488.936039	           49.892227	           -0.263399	            0.005500	           -0.688409	           -0.009036	           -4.539812	           -0.463254
            0.483000	           -2.851195	          401.296290	          -46.238844	           -0.252586	            0.006182	           -0.396660	           -0.035339	            4.973815	           -0.573101	            0.878091	          489.304317	           49.799725	           -0.263303	            0.005499	           -0.688247	           -0.008127	           -4.528559	           -0.460901
            0.483500	           -2.758957	          402.016191	          -45.960844	           -0.252643	            0.006182	           -0.396607	           -0.034207	            4.984383	           -0.569844	            0.969173	          490.040944	           49.896169	           -0.263061	            0.005502	           -0.688621	           -0.008983	           -4.541882	           -0.462456
            0.484000	           -2.987864	          402.195792	          -45.821939	           -0.252683	            0.006180	           -0.396161	           -0.036516	            4.915450	           -0.560014	            0.975154	          488.383617	           49.890256	           -0.263193	            0.005499	           -0.688091	           -0.009141	           -4.578052	           -0.467666
            0.484500	           -2.988484	          403.097937	          -46.001497	           -0.252701	            0.006180	           -0.396050	           -0.035997	            4.855466	           -0.554105	            0.971167	          489.488461	           49.894198	           -0.263128	            0.005500	           -0.688343	           -0.009057	           -4.564791	           -0.465295
            0.485000	           -2.805291	          403.458701	          -46.046259	           -0.252476	            0.006180	           -0.396017	           -0.033808	            4.862303	           -0.554929	            0.736876	          489.487950	           49.800441	           -0.263326	            0.005500	           -0.688376	           -0.006845	           -4.546733	           -0.462584
            0.485500	           -2.759479	          402.377509	          -46.142722	           -0.252443	            0.006180	           -0.396172	           -0.033959	            4.951767	           -0.567845	            0.969091	          490.041614	           49.708457	           -0.263334	            0.005500	           -0.688544	           -0.008978	           -4.539958	           -0.460521
            0.486000	           -2.804932	          402.737245	          -45.957639	           -0.252213	            0.006180	           -0.396028	           -0.034280	            4.921942	           -0.561659	            0.924379	          489.487790	           50.035002	           -0.263088	            0.005501	           -0.688572	           -0.008611	           -4.559774	           -0.466096
            0.486500	           -2.759658	          402.738237	          -46.187036	           -0.252561	            0.006180	           -0.396191	           -0.034039	            4.967514	           -0.569687	            0.832693	          488.934862	           50.079999	           -0.263157	            0.005500	           -0.688176	           -0.007785	           -4.570887	           -0.468181
            0.487000	           -2.896927	          402.557521	          -46.095756	           -0.252238	            0.006181	           -0.396295	           -0.035149	            4.884306	           -0.559288	            0.878173	          489.303647	           49.987437	           -0.263205	            0.005500	           -0.688364	           -0.008282	           -4.614403	           -0.471409
